<svg viewBox="0 0 362 78" fill="none" xmlns="http://www.w3.org/2000/svg">
<path d="M59.776 33.632C59.552 33.28 59.344 32.8 59.152 32.192C58.96 31.584 58.864 30.944 58.864 30.272C58.864 29.024 59.136 28.128 59.68 27.584C60.256 27.04 60.992 26.768 61.888 26.768H82.816C83.04 27.12 83.248 27.6 83.44 28.208C83.632 28.816 83.728 29.456 83.728 30.128C83.728 31.376 83.44 32.272 82.864 32.816C82.32 33.36 81.6 33.632 80.704 33.632H75.376V55.808C75.024 55.904 74.464 56 73.696 56.096C72.96 56.192 72.224 56.24 71.488 56.24C70.752 56.24 70.096 56.176 69.52 56.048C68.976 55.952 68.512 55.76 68.128 55.472C67.744 55.184 67.456 54.784 67.264 54.272C67.072 53.76 66.976 53.088 66.976 52.256V33.632H59.776ZM100.23 55.28C99.7815 55.664 99.1735 55.968 98.4055 56.192C97.6375 56.448 96.7255 56.576 95.6695 56.576C94.3575 56.576 93.2215 56.384 92.2615 56C91.3015 55.648 90.6615 55.136 90.3415 54.464C89.9895 53.696 89.5735 52.48 89.0935 50.816C88.6455 49.152 88.1975 47.328 87.7495 45.344C87.3015 43.36 86.8695 41.344 86.4535 39.296C86.0695 37.248 85.7655 35.44 85.5415 33.872C85.9895 33.424 86.5815 33.04 87.3175 32.72C88.0855 32.368 88.9175 32.192 89.8135 32.192C90.9335 32.192 91.8455 32.448 92.5495 32.96C93.2855 33.44 93.7335 34.288 93.8935 35.504C94.2135 37.936 94.4855 39.952 94.7095 41.552C94.9335 43.12 95.1095 44.416 95.2375 45.44C95.3975 46.432 95.5095 47.2 95.5735 47.744C95.6695 48.256 95.7495 48.672 95.8135 48.992H96.0055C96.1015 48.48 96.2615 47.744 96.4855 46.784C96.7415 45.792 97.0295 44.672 97.3495 43.424C97.6695 42.176 98.0055 40.832 98.3575 39.392C98.7095 37.92 99.0615 36.464 99.4135 35.024C100.054 34.672 100.678 34.4 101.286 34.208C101.926 34.016 102.71 33.92 103.638 33.92C104.758 33.92 105.718 34.096 106.518 34.448C107.318 34.8 107.83 35.344 108.054 36.08C108.438 37.488 108.806 38.864 109.158 40.208C109.51 41.52 109.83 42.752 110.118 43.904C110.406 45.024 110.662 46.032 110.885 46.928C111.11 47.792 111.27 48.48 111.366 48.992H111.606C111.958 46.528 112.294 43.968 112.614 41.312C112.966 38.656 113.286 35.952 113.574 33.2C114.15 32.848 114.758 32.592 115.398 32.432C116.038 32.272 116.678 32.192 117.318 32.192C118.438 32.192 119.366 32.432 120.102 32.912C120.838 33.392 121.206 34.224 121.206 35.408C121.206 35.92 121.126 36.688 120.966 37.712C120.806 38.736 120.598 39.888 120.342 41.168C120.086 42.448 119.782 43.792 119.43 45.2C119.11 46.608 118.774 47.968 118.422 49.28C118.102 50.592 117.782 51.776 117.462 52.832C117.174 53.888 116.918 54.704 116.694 55.28C116.246 55.664 115.558 55.968 114.63 56.192C113.702 56.448 112.71 56.576 111.654 56.576C108.966 56.576 107.382 55.904 106.902 54.56C106.71 53.984 106.47 53.264 106.182 52.4C105.894 51.504 105.59 50.528 105.27 49.472C104.95 48.416 104.646 47.328 104.358 46.208C104.07 45.056 103.83 43.952 103.638 42.896C103.414 44.016 103.142 45.184 102.822 46.4C102.502 47.584 102.166 48.752 101.814 49.904C101.494 51.024 101.19 52.064 100.902 53.024C100.614 53.952 100.39 54.704 100.23 55.28ZM149.046 44.336C149.046 46.32 148.742 48.096 148.134 49.664C147.526 51.2 146.662 52.496 145.542 53.552C144.454 54.608 143.142 55.408 141.606 55.952C140.07 56.496 138.358 56.768 136.47 56.768C134.582 56.768 132.87 56.48 131.334 55.904C129.798 55.328 128.47 54.512 127.35 53.456C126.262 52.368 125.414 51.056 124.806 49.52C124.198 47.984 123.894 46.256 123.894 44.336C123.894 42.448 124.198 40.736 124.806 39.2C125.414 37.664 126.262 36.368 127.35 35.312C128.47 34.224 129.798 33.392 131.334 32.816C132.87 32.24 134.582 31.952 136.47 31.952C138.358 31.952 140.07 32.256 141.606 32.864C143.142 33.44 144.454 34.272 145.542 35.36C146.662 36.416 147.526 37.712 148.134 39.248C148.742 40.784 149.046 42.48 149.046 44.336ZM132.246 44.336C132.246 46.288 132.614 47.792 133.35 48.848C134.118 49.872 135.174 50.384 136.518 50.384C137.862 50.384 138.886 49.856 139.59 48.8C140.326 47.744 140.694 46.256 140.694 44.336C140.694 42.416 140.326 40.944 139.59 39.92C138.854 38.864 137.814 38.336 136.47 38.336C135.126 38.336 134.086 38.864 133.35 39.92C132.614 40.944 132.246 42.416 132.246 44.336ZM153.075 26.192C153.075 24.976 153.475 23.952 154.275 23.12C155.107 22.288 156.195 21.872 157.539 21.872C158.883 21.872 159.955 22.288 160.755 23.12C161.587 23.952 162.003 24.976 162.003 26.192C162.003 27.408 161.587 28.432 160.755 29.264C159.955 30.096 158.883 30.512 157.539 30.512C156.195 30.512 155.107 30.096 154.275 29.264C153.475 28.432 153.075 27.408 153.075 26.192ZM151.443 59.264C152.147 58.816 152.659 58.192 152.979 57.392C153.299 56.624 153.459 55.76 153.459 54.8V33.008C153.811 32.944 154.323 32.864 154.995 32.768C155.699 32.64 156.403 32.576 157.107 32.576C157.811 32.576 158.435 32.624 158.979 32.72C159.555 32.816 160.035 33.008 160.419 33.296C160.803 33.584 161.091 33.984 161.283 34.496C161.507 34.976 161.619 35.616 161.619 36.416V55.568C161.619 56.912 161.459 58.128 161.139 59.216C160.819 60.304 160.355 61.232 159.747 62C159.171 62.8 158.451 63.408 157.587 63.824C156.755 64.272 155.811 64.496 154.755 64.496C153.347 64.496 152.243 64.064 151.443 63.2C150.643 62.368 150.227 61.312 150.195 60.032L151.443 59.264ZM179.145 56.768C177.257 56.768 175.497 56.512 173.865 56C172.265 55.456 170.857 54.656 169.641 53.6C168.457 52.544 167.513 51.216 166.809 49.616C166.137 48.016 165.801 46.144 165.801 44C165.801 41.888 166.137 40.08 166.809 38.576C167.513 37.04 168.425 35.792 169.545 34.832C170.665 33.84 171.945 33.12 173.385 32.672C174.825 32.192 176.297 31.952 177.801 31.952C179.497 31.952 181.033 32.208 182.409 32.72C183.817 33.232 185.017 33.936 186.009 34.832C187.033 35.728 187.817 36.8 188.361 38.048C188.937 39.296 189.225 40.656 189.225 42.128C189.225 43.216 188.921 44.048 188.312 44.624C187.705 45.2 186.857 45.568 185.769 45.728L173.913 47.504C174.265 48.56 174.985 49.36 176.073 49.904C177.161 50.416 178.409 50.672 179.817 50.672C181.129 50.672 182.361 50.512 183.513 50.192C184.697 49.84 185.657 49.44 186.393 48.992C186.905 49.312 187.337 49.76 187.689 50.336C188.041 50.912 188.217 51.52 188.217 52.16C188.217 53.6 187.545 54.672 186.201 55.376C185.177 55.92 184.025 56.288 182.745 56.48C181.465 56.672 180.265 56.768 179.145 56.768ZM177.801 37.904C177.033 37.904 176.361 38.032 175.785 38.288C175.241 38.544 174.793 38.88 174.441 39.296C174.089 39.68 173.817 40.128 173.625 40.64C173.465 41.12 173.369 41.616 173.337 42.128L181.545 40.784C181.449 40.144 181.097 39.504 180.489 38.864C179.881 38.224 178.985 37.904 177.801 37.904ZM211.642 44.432C210.234 43.952 208.954 43.472 207.802 42.992C206.65 42.48 205.658 41.872 204.826 41.168C203.994 40.464 203.338 39.632 202.858 38.672C202.41 37.68 202.186 36.48 202.186 35.072C202.186 32.352 203.226 30.176 205.306 28.544C207.418 26.912 210.362 26.096 214.138 26.096C215.514 26.096 216.794 26.192 217.978 26.384C219.162 26.576 220.17 26.88 221.002 27.296C221.866 27.68 222.538 28.192 223.018 28.832C223.498 29.44 223.738 30.16 223.738 30.992C223.738 31.824 223.546 32.544 223.162 33.152C222.778 33.728 222.314 34.224 221.77 34.64C221.066 34.192 220.122 33.808 218.938 33.488C217.754 33.136 216.458 32.96 215.05 32.96C213.61 32.96 212.554 33.168 211.882 33.584C211.21 33.968 210.874 34.464 210.874 35.072C210.874 35.552 211.082 35.952 211.498 36.272C211.914 36.56 212.538 36.832 213.37 37.088L215.914 37.904C218.922 38.864 221.226 40.096 222.826 41.6C224.458 43.072 225.274 45.088 225.274 47.648C225.274 50.368 224.202 52.576 222.058 54.272C219.914 55.936 216.762 56.768 212.602 56.768C211.13 56.768 209.754 56.64 208.474 56.384C207.226 56.16 206.122 55.824 205.162 55.376C204.234 54.896 203.498 54.32 202.954 53.648C202.442 52.944 202.186 52.144 202.186 51.248C202.186 50.32 202.458 49.536 203.002 48.896C203.546 48.224 204.138 47.712 204.778 47.36C205.674 48.064 206.762 48.672 208.042 49.184C209.354 49.696 210.778 49.952 212.314 49.952C213.882 49.952 214.986 49.712 215.626 49.232C216.266 48.752 216.586 48.192 216.586 47.552C216.586 46.912 216.33 46.432 215.818 46.112C215.306 45.76 214.586 45.424 213.658 45.104L211.642 44.432ZM239.763 31.952C241.683 31.952 243.459 32.208 245.091 32.72C246.755 33.2 248.179 33.952 249.363 34.976C250.547 36 251.475 37.296 252.147 38.864C252.819 40.4 253.155 42.24 253.155 44.384C253.155 46.432 252.867 48.224 252.291 49.76C251.715 51.296 250.899 52.592 249.843 53.648C248.787 54.672 247.507 55.44 246.003 55.952C244.531 56.464 242.883 56.72 241.059 56.72C239.683 56.72 238.403 56.512 237.219 56.096V64.064C236.899 64.16 236.387 64.256 235.683 64.352C234.979 64.48 234.259 64.544 233.523 64.544C232.819 64.544 232.179 64.496 231.603 64.4C231.059 64.304 230.595 64.112 230.211 63.824C229.827 63.536 229.539 63.136 229.347 62.624C229.155 62.144 229.059 61.504 229.059 60.704V37.664C229.059 36.8 229.235 36.096 229.587 35.552C229.971 35.008 230.483 34.512 231.123 34.064C232.115 33.424 233.347 32.912 234.819 32.528C236.291 32.144 237.939 31.952 239.763 31.952ZM239.859 50.288C243.155 50.288 244.803 48.32 244.803 44.384C244.803 42.336 244.387 40.816 243.555 39.824C242.755 38.832 241.587 38.336 240.051 38.336C239.443 38.336 238.899 38.416 238.419 38.576C237.939 38.704 237.523 38.864 237.171 39.056V49.616C237.555 49.808 237.971 49.968 238.419 50.096C238.867 50.224 239.347 50.288 239.859 50.288ZM267.214 50.816C267.758 50.816 268.35 50.768 268.99 50.672C269.662 50.544 270.158 50.384 270.478 50.192V46.352L267.022 46.64C266.126 46.704 265.39 46.896 264.814 47.216C264.238 47.536 263.95 48.016 263.95 48.656C263.95 49.296 264.19 49.824 264.67 50.24C265.182 50.624 266.03 50.816 267.214 50.816ZM266.83 31.952C268.558 31.952 270.126 32.128 271.534 32.48C272.974 32.832 274.19 33.376 275.182 34.112C276.206 34.816 276.99 35.728 277.534 36.848C278.078 37.936 278.35 39.232 278.35 40.736V51.488C278.35 52.32 278.11 53.008 277.63 53.552C277.182 54.064 276.638 54.512 275.998 54.896C273.918 56.144 270.99 56.768 267.214 56.768C265.518 56.768 263.982 56.608 262.606 56.288C261.262 55.968 260.094 55.488 259.102 54.848C258.142 54.208 257.39 53.392 256.846 52.4C256.334 51.408 256.078 50.256 256.078 48.944C256.078 46.736 256.734 45.04 258.046 43.856C259.358 42.672 261.39 41.936 264.142 41.648L270.43 40.976V40.64C270.43 39.712 270.014 39.056 269.182 38.672C268.382 38.256 267.214 38.048 265.678 38.048C264.462 38.048 263.278 38.176 262.126 38.432C260.974 38.688 259.934 39.008 259.006 39.392C258.59 39.104 258.238 38.672 257.95 38.096C257.662 37.488 257.518 36.864 257.518 36.224C257.518 35.392 257.71 34.736 258.094 34.256C258.51 33.744 259.134 33.312 259.966 32.96C260.894 32.608 261.982 32.352 263.23 32.192C264.51 32.032 265.71 31.952 266.83 31.952ZM298.124 41.216C298.124 40.224 297.836 39.504 297.26 39.056C296.716 38.576 295.964 38.336 295.004 38.336C294.364 38.336 293.724 38.416 293.084 38.576C292.476 38.736 291.948 38.976 291.5 39.296V55.952C291.18 56.048 290.668 56.144 289.964 56.24C289.292 56.336 288.588 56.384 287.852 56.384C287.148 56.384 286.508 56.336 285.932 56.24C285.388 56.144 284.924 55.952 284.54 55.664C284.156 55.376 283.852 54.992 283.628 54.512C283.436 54 283.34 53.344 283.34 52.544V38.144C283.34 37.28 283.516 36.576 283.868 36.032C284.252 35.488 284.764 34.992 285.404 34.544C286.492 33.776 287.852 33.152 289.484 32.672C291.148 32.192 292.988 31.952 295.004 31.952C298.62 31.952 301.404 32.752 303.356 34.352C305.308 35.92 306.284 38.112 306.284 40.928V55.952C305.964 56.048 305.452 56.144 304.748 56.24C304.076 56.336 303.372 56.384 302.636 56.384C301.932 56.384 301.292 56.336 300.716 56.24C300.172 56.144 299.708 55.952 299.324 55.664C298.94 55.376 298.636 54.992 298.412 54.512C298.22 54 298.124 53.344 298.124 52.544V41.216ZM311.132 26.192C311.132 24.976 311.532 23.952 312.332 23.12C313.164 22.288 314.252 21.872 315.596 21.872C316.94 21.872 318.012 22.288 318.812 23.12C319.644 23.952 320.06 24.976 320.06 26.192C320.06 27.408 319.644 28.432 318.812 29.264C318.012 30.096 316.94 30.512 315.596 30.512C314.252 30.512 313.164 30.096 312.332 29.264C311.532 28.432 311.132 27.408 311.132 26.192ZM319.676 55.952C319.324 56.016 318.796 56.096 318.092 56.192C317.42 56.32 316.732 56.384 316.028 56.384C315.324 56.384 314.684 56.336 314.108 56.24C313.564 56.144 313.1 55.952 312.716 55.664C312.332 55.376 312.028 54.992 311.804 54.512C311.612 54 311.516 53.344 311.516 52.544V33.008C311.868 32.944 312.38 32.864 313.052 32.768C313.756 32.64 314.46 32.576 315.164 32.576C315.868 32.576 316.492 32.624 317.036 32.72C317.612 32.816 318.092 33.008 318.476 33.296C318.86 33.584 319.148 33.984 319.34 34.496C319.564 34.976 319.676 35.616 319.676 36.416V55.952ZM337.207 56.768C335.319 56.768 333.559 56.512 331.927 56C330.327 55.456 328.919 54.656 327.703 53.6C326.519 52.544 325.575 51.216 324.871 49.616C324.199 48.016 323.863 46.144 323.863 44C323.863 41.888 324.199 40.08 324.871 38.576C325.575 37.04 326.487 35.792 327.607 34.832C328.727 33.84 330.007 33.12 331.447 32.672C332.887 32.192 334.359 31.952 335.863 31.952C337.559 31.952 339.095 32.208 340.471 32.72C341.879 33.232 343.079 33.936 344.071 34.832C345.095 35.728 345.879 36.8 346.423 38.048C346.999 39.296 347.287 40.656 347.287 42.128C347.287 43.216 346.983 44.048 346.375 44.624C345.767 45.2 344.919 45.568 343.831 45.728L331.975 47.504C332.327 48.56 333.047 49.36 334.135 49.904C335.223 50.416 336.471 50.672 337.879 50.672C339.191 50.672 340.423 50.512 341.575 50.192C342.759 49.84 343.719 49.44 344.455 48.992C344.967 49.312 345.399 49.76 345.751 50.336C346.103 50.912 346.279 51.52 346.279 52.16C346.279 53.6 345.607 54.672 344.263 55.376C343.239 55.92 342.087 56.288 340.807 56.48C339.527 56.672 338.327 56.768 337.207 56.768ZM335.863 37.904C335.095 37.904 334.423 38.032 333.847 38.288C333.303 38.544 332.855 38.88 332.503 39.296C332.151 39.68 331.879 40.128 331.687 40.64C331.527 41.12 331.431 41.616 331.399 42.128L339.607 40.784C339.511 40.144 339.159 39.504 338.551 38.864C337.943 38.224 337.047 37.904 335.863 37.904Z" fill="white"/>
<path fill-rule="evenodd" clip-rule="evenodd" d="M19.5698 14.2771C21.1522 12.5743 23.8478 12.5743 25.4302 14.2771L36 25.6517V17.337C36 16.2324 36.8954 15.337 38 15.337H43C44.1046 15.337 45 16.2324 45 17.337V35.337V39.212V54.337C45 59.8598 40.5228 64.337 35 64.337H10C4.47715 64.337 0 59.8598 0 54.337V35.337L19.5698 14.2771Z" fill="white"/>
<path fill-rule="evenodd" clip-rule="evenodd" d="M9.68774 37.4919C8.75576 37.4919 8.00024 38.2474 8.00024 39.1794V57.1794C8.00024 58.1114 8.75576 58.8669 9.68774 58.8669C10.6197 58.8669 11.3752 58.1114 11.3752 57.1794V52.1169H32.7502V57.1794C32.7502 58.1114 33.5058 58.8669 34.4377 58.8669C35.3697 58.8669 36.1252 58.1114 36.1252 57.1794V39.1794C36.1252 38.2474 35.3697 37.4919 34.4377 37.4919C33.5058 37.4919 32.7502 38.2474 32.7502 39.1794V44.2419H11.3752V39.1794C11.3752 38.2474 10.6197 37.4919 9.68774 37.4919ZM12.5002 41.4294C12.5002 40.4974 13.2558 39.7419 14.1877 39.7419H19.8127C20.7447 39.7419 21.5002 40.4974 21.5002 41.4294C21.5002 42.3614 20.7447 43.1169 19.8127 43.1169H14.1877C13.2558 43.1169 12.5002 42.3614 12.5002 41.4294Z" fill="#769C7A"/>
</svg>
