<svg viewBox="0 0 61 41" fill="none" xmlns="http://www.w3.org/2000/svg">
<path fill-rule="evenodd" clip-rule="evenodd" d="M0 3.5C0 1.567 1.56702 0 3.5 0H57.5C59.433 0 61 1.567 61 3.5C61 5.43299 59.433 7 57.5 7H3.5C1.56702 7 0 5.43299 0 3.5ZM0 20.5C0 18.567 1.56702 17 3.5 17H57.5C59.433 17 61 18.567 61 20.5C61 22.433 59.433 24 57.5 24H3.5C1.56702 24 0 22.433 0 20.5ZM3.5 34C1.56702 34 0 35.567 0 37.5C0 39.433 1.56702 41 3.5 41H57.5C59.433 41 61 39.433 61 37.5C61 35.567 59.433 34 57.5 34H3.5Z" fill="white"/>
</svg>
